<svg fill="none" height="21" viewBox="0 0 110 21" width="110" xmlns="http://www.w3.org/2000/svg"><g fill="#000"><path d="m38.1801 3.45902c3.5266 0 5.8193 2.00003 5.8193 5.21231 0 2.35187-1.3482 4.09947-3.4619 4.84517l4.1436 7.1053h-3.0734l-3.8656-6.742h-4.2693v6.742h-2.6469v-17.16278zm-4.7111 2.39009v5.66739h4.5854c2.1023 0 3.1877-1.1778 3.1877-2.84517 0-1.70557-1.0816-2.82222-3.1877-2.82222z"/><path d="m51.4145 8.22773c3.5267 0 5.8194 2.63097 5.8194 5.88157 0 .3785-.0266.7724-.099 1.1625h-9.3841c.1142 1.8203 1.6643 3.2505 3.7552 3.2505 1.5119 0 2.7192-.6463 3.6256-2.0727l1.8395 1.3423c-1.1197 2.023-3.3248 3.0861-5.4651 3.0861-3.6524 0-6.3374-2.7075-6.3374-6.3098 0-3.6215 2.5822-6.34047 6.2459-6.34047zm3.2868 5.17027c-.1524-1.7056-1.5729-2.9102-3.3134-2.9102-1.8509 0-3.2639 1.2008-3.5762 2.9102z"/><path d="m59.5495 20.6218v-12.14168h2.506v1.52968c.4037-.61953 1.55-1.78207 3.717-1.78207 3.3248 0 5.0767 2.07267 5.0767 5.02107v7.373h-2.4945v-6.8414c0-2.0115-1.0969-3.1741-2.9744-3.1741-1.8395 0-3.3363 1.1626-3.3363 3.1741v6.8414z"/><path d="m78.9766 8.22773c2.0527 0 3.4124.75718 4.3074 1.90827v-7.32326h2.4945v17.80906h-2.4945v-1.6559c-.895 1.1511-2.2547 1.9083-4.3074 1.9083-3.4391 0-6.0708-2.6578-6.0708-6.3864 0-3.7323 2.6317-6.26007 6.0708-6.26007zm-3.58 6.26007c0 2.2372 1.55 4.1339 3.8808 4.1339s3.9913-1.8967 3.9913-4.1339c0-2.2371-1.6757-4.0077-3.9913-4.0077-2.3308-.0038-3.8808 1.7668-3.8808 4.0077z"/><path d="m94.1382 8.22773c3.5266 0 5.8193 2.63097 5.8193 5.88157 0 .3785-.0266.7724-.099 1.1625h-9.3841c.1142 1.8203 1.6643 3.2505 3.7551 3.2505 1.512 0 2.7193-.6463 3.6257-2.0727l1.8395 1.3423c-1.1197 2.023-3.3248 3.0861-5.4652 3.0861-3.6523 0-6.3373-2.7075-6.3373-6.3098-.0038-3.6215 2.5784-6.34047 6.246-6.34047zm3.2867 5.17027c-.1524-1.7056-1.5729-2.9102-3.3134-2.9102-1.8509 0-3.2639 1.2008-3.5762 2.9102z"/><path d="m102.368 20.6218v-12.14168h2.506v1.65588c.682-1.327 1.828-1.90827 3.15-1.90827.944 0 1.664.3021 1.664.3021l-.263 2.30217c-.137-.0497-.681-.2792-1.473-.2792-1.337 0-3.074.7075-3.074 3.4532v6.6158z"/><path d="m15.6491.00582604c-2.6812-.12619704-4.9358 1.81264396-5.3205 4.36717396-.0152.11854-.0381.23327-.0571.34799-.59794 3.18169-3.38195 5.59091-6.7258 5.59091-1.19206 0-2.31175-.3059-3.286723-.84132-.118063-.06501-.258977.01912-.258977.15296v.68456 10.3137h10.2677v-7.7324c0-1.4226 1.1501-2.5775 2.5669-2.5775h2.5669c2.9059 0 5.2443-2.42069 5.13-5.36528-.1028-2.65013-2.2431-4.814597-4.8824-4.94079396z"/></g></svg>